<svg width="41" height="40" viewBox="0 0 41 40" fill="none" xmlns="http://www.w3.org/2000/svg">
<path d="M23.0418 24.6875C23.219 23.5834 23.4881 22.496 23.8463 21.4367C23.9794 21.0502 17.5205 21.0503 17.6536 21.4373C18.0119 22.4964 18.281 23.5835 18.4584 24.6873C18.3 25.574 18.0358 26.4385 17.6716 27.2623C17.4966 27.6565 24.0037 27.6561 23.8279 27.263C23.4641 26.4389 23.2002 25.5743 23.0418 24.6875Z" fill="#FFA000"/>
<path d="M35.4441 5.625H27C26.6661 5.625 25.9404 20.5414 26.2346 20.6091C26.583 20.6782 26.9378 20.7105 27.293 20.7056C33.295 20.3636 35.968 14.9739 36.9945 7.56469C37.0294 7.33411 37.0162 7.0988 36.9558 6.87356C36.8954 6.64831 36.7891 6.43799 36.6435 6.25582C36.4979 6.07365 36.3162 5.92357 36.1098 5.81501C35.9034 5.70645 35.6767 5.64176 35.4441 5.625ZM33.8481 9.58125C32.661 17.5049 27.83 17.5958 27.625 17.5958C27.289 17.6023 27.2795 8.125 27.625 8.125H32.6731C32.8492 8.13475 33.0213 8.18135 33.1783 8.26179C33.3352 8.34223 33.4735 8.45472 33.5843 8.59198C33.695 8.72923 33.7757 8.88821 33.8212 9.05862C33.8666 9.22903 33.8758 9.40708 33.8481 9.58125Z" fill="#FFA000"/>
<path d="M14.5097 5.625H6.06554C5.833 5.64191 5.60647 5.7067 5.40017 5.81531C5.19386 5.92392 5.01224 6.07401 4.86669 6.25615C4.72114 6.43829 4.61482 6.64855 4.55439 6.87373C4.49396 7.09891 4.48073 7.33415 4.51554 7.56469C5.54472 14.9772 8.21179 20.3599 14.2171 20.7056C14.5724 20.7104 14.9272 20.6781 15.2757 20.6091C15.5693 20.5414 14.8437 5.625 14.5097 5.625ZM13.8847 17.5958C13.6797 17.5958 8.84872 17.5049 7.66191 9.58069C7.6342 9.40659 7.64334 9.22862 7.68875 9.05828C7.73415 8.88794 7.81481 8.72902 7.92549 8.59181C8.03618 8.45461 8.17443 8.34216 8.33131 8.26175C8.48819 8.18134 8.6602 8.13475 8.83622 8.125H13.8847C14.2299 8.125 14.2299 17.5958 13.8847 17.5958Z" fill="#FFA000"/>
<path d="M26.613 34.2523L25.6374 29.375H15.8624L14.8874 34.2523C14.8502 34.4361 26.6499 34.4361 26.613 34.2523Z" fill="#67676B"/>
<path d="M26.375 33.75H15.125C14.4346 33.75 13.875 34.3096 13.875 35V37.5C13.875 38.1904 14.4346 38.75 15.125 38.75H26.375C27.0654 38.75 27.625 38.1904 27.625 37.5V35C27.625 34.3096 27.0654 33.75 26.375 33.75Z" fill="#46464E"/>
<path d="M24.8125 26.875H16.0625C15.1996 26.875 14.5 27.5746 14.5 28.4375V29.0625C14.5 29.9254 15.1996 30.625 16.0625 30.625H24.8125C25.6754 30.625 26.375 29.9254 26.375 29.0625V28.4375C26.375 27.5746 25.6754 26.875 24.8125 26.875Z" fill="#46464E"/>
<path d="M29.5 3.75H12V13.75C12.4819 25.3609 29.0224 25.352 29.5 13.75V3.75Z" fill="#FFC107"/>
<path d="M20.75 7.5C13.6674 7.72238 13.6657 17.9016 20.75 18.125C27.8325 17.9024 27.8342 7.72363 20.75 7.5Z" fill="#FFA000"/>
<path d="M20.9267 15.4096V16.1596H20.2919V15.4096C19.8885 15.4094 19.497 15.273 19.1808 15.0224C18.8647 14.7718 18.6425 14.4217 18.5503 14.029L19.6413 13.7793C19.6955 14.0019 19.8299 14.1966 20.0188 14.3261C20.2077 14.4557 20.4377 14.5109 20.6649 14.4812C21.2229 14.5517 21.7682 14.0125 21.2917 13.6083C20.7849 13.3636 19.3126 13.1549 19.1393 12.7556C18.9704 12.5299 18.8656 12.2627 18.836 11.9823C18.8065 11.7019 18.8532 11.4187 18.9712 11.1627C19.0893 10.9066 19.2744 10.6873 19.5068 10.5277C19.7393 10.3682 20.0106 10.2744 20.2919 10.2563V9.62939H20.9267V10.2481C21.282 10.2537 21.6269 10.3692 21.914 10.5787C22.201 10.7882 22.4162 11.0814 22.5298 11.4181L21.5298 11.7514C21.3891 10.8749 19.4508 10.9995 20.1012 11.9163C20.8257 12.3176 21.9947 12.1919 22.4239 12.9588C22.5696 13.2135 22.6443 13.5027 22.6401 13.7961C22.6359 14.0895 22.5529 14.3764 22.3999 14.6269C22.2469 14.8773 22.0295 15.082 21.7704 15.2197C21.5112 15.3574 21.2198 15.423 20.9267 15.4096Z" fill="#FFD54F"/>
<path d="M28.875 1.25H12.625C12.1277 1.25 11.6508 1.44754 11.2992 1.79917C10.9475 2.15081 10.75 2.62772 10.75 3.125C10.75 3.62228 10.9475 4.09919 11.2992 4.45083C11.6508 4.80246 12.1277 5 12.625 5H28.875C29.3723 5 29.8492 4.80246 30.2008 4.45083C30.5525 4.09919 30.75 3.62228 30.75 3.125C30.75 2.62772 30.5525 2.15081 30.2008 1.79917C29.8492 1.44754 29.3723 1.25 28.875 1.25Z" fill="#FFA000"/>
</svg>
