<svg width="28" height="28" viewBox="0 0 28 28" fill="none" xmlns="http://www.w3.org/2000/svg">
<path d="M11.9162 3.66887L25.0412 13.2939C25.1464 13.3789 25.2313 13.4864 25.2896 13.6086C25.3479 13.7307 25.3782 13.8643 25.3782 13.9996C25.3782 14.1349 25.3479 14.2685 25.2896 14.3906C25.2313 14.5127 25.1464 14.6202 25.0412 14.7053L11.9162 24.3303C11.7584 24.4395 11.5693 24.4943 11.3776 24.4865C11.1859 24.4786 11.0019 24.4085 10.8536 24.2868C10.7053 24.1651 10.6007 23.9983 10.5556 23.8118C10.5105 23.6253 10.5274 23.4292 10.6037 23.2531L14.9542 14L10.6063 4.74687C10.5297 4.57108 10.5125 4.37511 10.5573 4.18864C10.602 4.00218 10.7063 3.83539 10.8544 3.71354C11.0025 3.59168 11.1862 3.5214 11.3778 3.51335C11.5694 3.50529 11.7584 3.55989 11.9162 3.66887ZM8.81606 23.975L13.0266 14.4375C13.0753 14.3272 13.1004 14.208 13.1004 14.0875C13.1004 13.967 13.0753 13.8478 13.0266 13.7375L8.8178 4.025C8.74967 3.86889 8.63746 3.73606 8.49493 3.64281C8.35241 3.54955 8.18576 3.49992 8.01543 3.5L3.47593 3.5C3.3322 3.50313 3.19138 3.5411 3.06556 3.61066C2.93974 3.68021 2.83269 3.77927 2.7536 3.89933C2.67451 4.01938 2.62575 4.15684 2.6115 4.2999C2.59725 4.44295 2.61795 4.58733 2.6718 4.72062L6.73005 14.161L2.67618 23.2697C2.61932 23.4031 2.59614 23.5484 2.6087 23.6929C2.62125 23.8373 2.66915 23.9765 2.74818 24.098C2.8272 24.2196 2.93492 24.3198 3.06183 24.3899C3.18875 24.46 3.33096 24.4978 3.47593 24.5L8.01543 24.5C8.18546 24.4997 8.35173 24.45 8.49392 24.3567C8.6361 24.2635 8.74804 24.1308 8.81606 23.975Z" fill="#0B7D54"/>
<path d="M10.5236 23.625C10.5237 23.4964 10.552 23.3695 10.6067 23.2531L14.9546 14L10.6067 4.74687C10.5297 4.57078 10.5122 4.37433 10.5571 4.18742C10.6019 4.0005 10.7066 3.83335 10.8552 3.71141C11.0038 3.58946 11.1881 3.5194 11.3802 3.51188C11.5723 3.50436 11.7616 3.5598 11.9192 3.66975L25.0442 13.2948C25.1495 13.3798 25.2343 13.4873 25.2927 13.6094C25.351 13.7315 25.3812 13.8651 25.3812 14.0004C25.3812 14.1357 25.351 14.2693 25.2927 14.3914C25.2343 14.5136 25.1495 14.6211 25.0442 14.7061L11.9192 24.3311C11.7881 24.4247 11.6338 24.4806 11.4732 24.4928C11.3125 24.505 11.1516 24.473 11.0078 24.4003C10.864 24.3275 10.7429 24.2168 10.6576 24.0802C10.5722 23.9435 10.5259 23.7861 10.5236 23.625ZM16.8 14C16.8002 14.1286 16.7718 14.2556 16.7169 14.3719L13.6544 20.8863L23.0431 14L13.65 7.11375L16.7125 13.6281C16.7689 13.744 16.7988 13.8711 16.8 14ZM2.60136 4.375C2.60475 4.14399 2.69802 3.92339 2.86139 3.76003C3.02475 3.59666 3.24535 3.50339 3.47636 3.5L8.01586 3.5C8.18618 3.49992 8.35283 3.54955 8.49536 3.64281C8.63789 3.73606 8.7501 3.86889 8.81823 4.025L13.0287 13.7375C13.0774 13.8478 13.1026 13.967 13.1026 14.0875C13.1026 14.208 13.0774 14.3272 13.0287 14.4375L8.81823 23.975C8.75022 24.1308 8.63828 24.2635 8.49609 24.3567C8.35391 24.45 8.18764 24.4997 8.01761 24.5L3.47811 24.5C3.33314 24.4978 3.19092 24.46 3.06401 24.3899C2.9371 24.3198 2.82938 24.2196 2.75035 24.098C2.67133 23.9765 2.62343 23.8373 2.61087 23.6929C2.59832 23.5484 2.62149 23.4031 2.67836 23.2697L6.73223 14.161L2.67223 4.72062C2.62557 4.61137 2.60146 4.49381 2.60136 4.375ZM7.43748 5.25L4.80023 5.25L8.48748 13.825C8.53515 13.9355 8.55974 14.0546 8.55974 14.175C8.55974 14.2954 8.53515 14.4145 8.48748 14.525L4.82386 22.75L7.44886 22.75L11.2735 14.0805L7.43748 5.25Z" fill="#1BE181"/>
</svg>
