<svg width="28" height="28" viewBox="0 0 28 28" fill="none" xmlns="http://www.w3.org/2000/svg">
<path d="M16.0838 3.66887L2.95882 13.2939C2.85359 13.3789 2.76871 13.4864 2.7104 13.6086C2.65209 13.7307 2.62183 13.8643 2.62183 13.9996C2.62183 14.1349 2.65209 14.2685 2.7104 14.3906C2.76871 14.5127 2.85359 14.6202 2.95882 14.7053L16.0838 24.3303C16.2416 24.4395 16.4307 24.4943 16.6224 24.4865C16.8141 24.4786 16.9981 24.4085 17.1464 24.2868C17.2947 24.1651 17.3993 23.9983 17.4444 23.8118C17.4895 23.6253 17.4726 23.4292 17.3963 23.2531L13.0458 14L17.3937 4.74687C17.4703 4.57108 17.4875 4.37511 17.4427 4.18864C17.398 4.00218 17.2937 3.83539 17.1456 3.71354C16.9975 3.59168 16.8138 3.5214 16.6222 3.51335C16.4306 3.50529 16.2416 3.55989 16.0838 3.66887ZM19.1839 23.975L14.9734 14.4375C14.9247 14.3272 14.8996 14.208 14.8996 14.0875C14.8996 13.967 14.9247 13.8478 14.9734 13.7375L19.1822 4.025C19.2503 3.86889 19.3625 3.73606 19.5051 3.64281C19.6476 3.54955 19.8142 3.49992 19.9846 3.5L24.5241 3.5C24.6678 3.50313 24.8086 3.5411 24.9344 3.61066C25.0603 3.68021 25.1673 3.77927 25.2464 3.89933C25.3255 4.01938 25.3743 4.15684 25.3885 4.2999C25.4027 4.44295 25.3821 4.58733 25.3282 4.72062L21.2699 14.161L25.3238 23.2697C25.3807 23.4031 25.4039 23.5484 25.3913 23.6929C25.3787 23.8373 25.3308 23.9765 25.2518 24.098C25.1728 24.2196 25.0651 24.3198 24.9382 24.3899C24.8113 24.46 24.669 24.4978 24.5241 24.5L19.9846 24.5C19.8145 24.4997 19.6483 24.45 19.5061 24.3567C19.3639 24.2635 19.252 24.1308 19.1839 23.975Z" fill="#0B7D54"/>
<path d="M17.4764 23.625C17.4763 23.4964 17.448 23.3695 17.3933 23.2531L13.0454 14L17.3933 4.74687C17.4703 4.57078 17.4878 4.37433 17.4429 4.18742C17.3981 4.0005 17.2934 3.83335 17.1448 3.71141C16.9962 3.58946 16.8119 3.5194 16.6198 3.51188C16.4277 3.50436 16.2384 3.5598 16.0808 3.66975L2.95577 13.2948C2.85053 13.3798 2.76565 13.4873 2.70735 13.6094C2.64904 13.7315 2.61877 13.8651 2.61877 14.0004C2.61877 14.1357 2.64904 14.2693 2.70735 14.3914C2.76565 14.5136 2.85053 14.6211 2.95577 14.7061L16.0808 24.3311C16.2119 24.4247 16.3662 24.4806 16.5268 24.4928C16.6875 24.505 16.8484 24.473 16.9922 24.4003C17.136 24.3275 17.2571 24.2168 17.3424 24.0802C17.4278 23.9435 17.4741 23.7861 17.4764 23.625ZM11.2 14C11.1998 14.1286 11.2282 14.2556 11.2831 14.3719L14.3456 20.8863L4.95689 14L14.35 7.11375L11.2875 13.6281C11.2311 13.744 11.2012 13.8711 11.2 14ZM25.3986 4.375C25.3953 4.14399 25.302 3.92339 25.1386 3.76003C24.9752 3.59666 24.7547 3.50339 24.5236 3.5L19.9841 3.5C19.8138 3.49992 19.6472 3.54955 19.5046 3.64281C19.3621 3.73606 19.2499 3.86889 19.1818 4.025L14.9713 13.7375C14.9226 13.8478 14.8974 13.967 14.8974 14.0875C14.8974 14.208 14.9226 14.3272 14.9713 14.4375L19.1818 23.975C19.2498 24.1308 19.3617 24.2635 19.5039 24.3567C19.6461 24.45 19.8124 24.4997 19.9824 24.5L24.5219 24.5C24.6669 24.4978 24.8091 24.46 24.936 24.3899C25.0629 24.3198 25.1706 24.2196 25.2496 24.098C25.3287 23.9765 25.3766 23.8373 25.3891 23.6929C25.4017 23.5484 25.3785 23.4031 25.3216 23.2697L21.2678 14.161L25.3278 4.72062C25.3744 4.61137 25.3985 4.49381 25.3986 4.375ZM20.5625 5.25L23.1998 5.25L19.5125 13.825C19.4648 13.9355 19.4403 14.0546 19.4403 14.175C19.4403 14.2954 19.4648 14.4145 19.5125 14.525L23.1761 22.75L20.5511 22.75L16.7265 14.0805L20.5625 5.25Z" fill="#1BE181"/>
</svg>
